<svg xmlns="http://www.w3.org/2000/svg" xmlns:xlink="http://www.w3.org/1999/xlink" width="249" height="219" viewBox="0 0 249 219">
  <defs>
    <filter id="Rectangle_59" x="0" y="0" width="249" height="219" filterUnits="userSpaceOnUse">
      <feOffset dx="-1" dy="5" input="SourceAlpha"/>
      <feGaussianBlur stdDeviation="4" result="blur"/>
      <feFlood flood-opacity="0.161"/>
      <feComposite operator="in" in2="blur"/>
      <feComposite in="SourceGraphic"/>
    </filter>
    <clipPath id="clip-path">
      <path id="path18" d="M0,53.938V-56.25H110.188V53.938H0" transform="translate(0 56.25)"/>
    </clipPath>
  </defs>
  <g id="csscard" transform="translate(-618 -5810)">
    <g transform="matrix(1, 0, 0, 1, 618, 5810)" filter="url(#Rectangle_59)">
      <rect id="Rectangle_59-2" data-name="Rectangle 59" width="225" height="195" rx="35" transform="translate(13 7)" fill="#fff" opacity="0.84"/>
    </g>
    <g id="g10" transform="translate(688 5915.25)">
      <g id="g12" transform="translate(0 -56.25)">
        <g id="g14" clip-path="url(#clip-path)">
          <g id="g20" transform="translate(22.887 11.019)">
            <g id="g22">
              <g id="g24">
                <path id="path26" d="M11.684,33.786V-46.886a3.74,3.74,0,0,1,3.739-3.739H48.109L76.1-22.637V33.786a3.74,3.74,0,0,1-3.739,3.739H15.423a3.74,3.74,0,0,1-3.739-3.739Z" transform="translate(-11.684 50.625)" fill="#2b2b2b" fill-rule="evenodd"/>
              </g>
            </g>
            <g id="g28" transform="translate(36.426)">
              <g id="g30">
                <path id="path32" d="M30.279-50.625,58.266-22.637H34.018a3.74,3.74,0,0,1-3.739-3.739Z" transform="translate(-30.279 50.625)" fill="#525252" fill-rule="evenodd"/>
              </g>
            </g>
            <g id="g34" transform="translate(9.253 64.257)">
              <g id="g36" transform="translate(0 0)">
                <path id="path38" d="M27.424-7.274l.82,1.4a6.256,6.256,0,0,1-4.929,2,6.766,6.766,0,0,1-4.951-1.932,6.759,6.759,0,0,1-1.956-5.039,6.732,6.732,0,0,1,1.971-5.039,6.775,6.775,0,0,1,4.936-1.932A6.538,6.538,0,0,1,28.1-16.035l-.793,1.528a4.378,4.378,0,0,0-1.557-1.126,5.368,5.368,0,0,0-2.36-.526A4.8,4.8,0,0,0,19.774-14.7a5.257,5.257,0,0,0-1.41,3.808,5.219,5.219,0,0,0,1.42,3.8,4.814,4.814,0,0,0,3.607,1.457,5.206,5.206,0,0,0,4.033-1.643Z" transform="translate(-16.407 17.822)" fill="#e6e6e6"/>
              </g>
            </g>
            <g id="g40" transform="translate(22.199 64.276)">
              <g id="g42">
                <path id="path44" d="M32.093-7.883A3.623,3.623,0,0,1,30.68-4.952,5.041,5.041,0,0,1,27.372-3.89a5.2,5.2,0,0,1-1.552-.23,4.359,4.359,0,0,1-1.3-.649,9.31,9.31,0,0,1-.864-.7,8.493,8.493,0,0,1-.642-.693l1.109-1.271a5.533,5.533,0,0,0,1.494,1.361,3.57,3.57,0,0,0,1.937.578,2.869,2.869,0,0,0,1.885-.617,2.036,2.036,0,0,0,.752-1.658,1.818,1.818,0,0,0-.215-.879,1.922,1.922,0,0,0-.654-.673c-.294-.189-.512-.318-.656-.392S28.3-9.881,28-10q-1.587-.632-2.15-.908A4.1,4.1,0,0,1,24.5-11.86a3.256,3.256,0,0,1-.879-2.351,3.252,3.252,0,0,1,1.232-2.6,4.75,4.75,0,0,1,3.115-1,5.189,5.189,0,0,1,3.871,1.748l-.994,1.29a4.047,4.047,0,0,0-2.973-1.452,2.744,2.744,0,0,0-1.694.492,1.638,1.638,0,0,0-.654,1.391,2.057,2.057,0,0,0,.142.793,1.565,1.565,0,0,0,.431.588,3.36,3.36,0,0,0,.539.382,6.892,6.892,0,0,0,.627.291l2.483,1.041a4.43,4.43,0,0,1,1.53,1.09,3.549,3.549,0,0,1,.82,2.275Z" transform="translate(-23.016 17.812)" fill="#e6e6e6"/>
              </g>
            </g>
            <g id="g46" transform="translate(32.643 64.276)">
              <g id="g48">
                <path id="path50" d="M37.425-7.883a3.623,3.623,0,0,1-1.413,2.931A5.041,5.041,0,0,1,32.7-3.89a5.2,5.2,0,0,1-1.552-.23,4.359,4.359,0,0,1-1.3-.649,9.31,9.31,0,0,1-.864-.7,8.5,8.5,0,0,1-.642-.693l1.109-1.271A5.533,5.533,0,0,0,30.95-6.074a3.57,3.57,0,0,0,1.937.578,2.869,2.869,0,0,0,1.885-.617,2.036,2.036,0,0,0,.752-1.658,1.818,1.818,0,0,0-.215-.879,1.922,1.922,0,0,0-.654-.673c-.294-.189-.512-.318-.656-.392s-.365-.167-.664-.282q-1.587-.632-2.15-.908a4.1,4.1,0,0,1-1.357-.955,3.256,3.256,0,0,1-.879-2.351,3.252,3.252,0,0,1,1.232-2.6,4.75,4.75,0,0,1,3.115-1,5.189,5.189,0,0,1,3.871,1.748l-.994,1.29A4.047,4.047,0,0,0,33.2-16.226a2.744,2.744,0,0,0-1.694.492,1.638,1.638,0,0,0-.654,1.391,2.056,2.056,0,0,0,.142.793,1.565,1.565,0,0,0,.431.588,3.36,3.36,0,0,0,.539.382,6.893,6.893,0,0,0,.627.291l2.483,1.041a4.43,4.43,0,0,1,1.53,1.09,3.549,3.549,0,0,1,.82,2.275Z" transform="translate(-28.347 17.812)" fill="#e6e6e6"/>
              </g>
            </g>
          </g>
        </g>
      </g>
    </g>
  </g>
</svg>
