<svg xmlns="http://www.w3.org/2000/svg" xmlns:xlink="http://www.w3.org/1999/xlink" width="249" height="219" viewBox="0 0 249 219">
  <defs>
    <filter id="Rectangle_58" x="0" y="0" width="249" height="219" filterUnits="userSpaceOnUse">
      <feOffset dx="-1" dy="5" input="SourceAlpha"/>
      <feGaussianBlur stdDeviation="4" result="blur"/>
      <feFlood flood-opacity="0.161"/>
      <feComposite operator="in" in2="blur"/>
      <feComposite in="SourceGraphic"/>
    </filter>
  </defs>
  <g id="htmlcard" transform="translate(-367 -5810)">
    <g transform="matrix(1, 0, 0, 1, 367, 5810)" filter="url(#Rectangle_58)">
      <rect id="Rectangle_58-2" data-name="Rectangle 58" width="225" height="195" rx="35" transform="translate(13 7)" fill="#fff" opacity="0.84"/>
    </g>
    <g id="iconfinder_code_coding_html_css_programming_3994346" transform="translate(456.19 5887.238)">
      <path id="Path_15" data-name="Path 15" d="M18.848,25.061a4.562,4.562,0,0,0-6.409.578L1.06,39.293a4.54,4.54,0,0,0,0,5.832L12.439,58.779a4.55,4.55,0,1,0,6.987-5.832L10.474,42.209,19.426,31.47a4.552,4.552,0,0,0-.578-6.41Z" transform="translate(0 -14.908)"/>
      <path id="Path_16" data-name="Path 16" d="M50.544,12.093a4.594,4.594,0,0,0-5.352,3.574l-9.1,45.515a4.54,4.54,0,0,0,3.574,5.351,4.328,4.328,0,0,0,.9.089,4.548,4.548,0,0,0,4.454-3.662l9.1-45.515a4.54,4.54,0,0,0-3.574-5.352Z" transform="translate(-8.689 -12.012)"/>
      <path id="Path_17" data-name="Path 17" d="M88.423,39.292,77.044,25.637a4.55,4.55,0,1,0-6.987,5.832l8.952,10.739L70.057,52.946a4.55,4.55,0,1,0,6.987,5.832L88.423,45.123A4.54,4.54,0,0,0,88.423,39.292Z" transform="translate(-16.655 -14.906)"/>
    </g>
  </g>
</svg>
