<svg xmlns="http://www.w3.org/2000/svg" xmlns:xlink="http://www.w3.org/1999/xlink" width="249" height="219" viewBox="0 0 249 219">
  <defs>
    <filter id="Rectangle_60" x="0" y="0" width="249" height="219" filterUnits="userSpaceOnUse">
      <feOffset dx="-1" dy="5" input="SourceAlpha"/>
      <feGaussianBlur stdDeviation="4" result="blur"/>
      <feFlood flood-opacity="0.161"/>
      <feComposite operator="in" in2="blur"/>
      <feComposite in="SourceGraphic"/>
    </filter>
  </defs>
  <g id="jscard" transform="translate(-896 -5810)">
    <g transform="matrix(1, 0, 0, 1, 896, 5810)" filter="url(#Rectangle_60)">
      <rect id="Rectangle_60-2" data-name="Rectangle 60" width="225" height="195" rx="35" transform="translate(13 7)" fill="#fff" opacity="0.84"/>
    </g>
    <g id="iconfinder_code-programming-javascript-software-develop-command-language_652581" transform="translate(966 5858)">
      <g id="Group_19" data-name="Group 19" transform="translate(14 14)">
        <g id="Group_18" data-name="Group 18">
          <circle id="Ellipse_12" data-name="Ellipse 12" cx="42" cy="42" r="42"/>
        </g>
      </g>
      <g id="Layer_1_1_" transform="translate(33.312 39.19)">
        <g id="Group_21" data-name="Group 21">
          <g id="Group_20" data-name="Group 20">
            <path id="Path_18" data-name="Path 18" d="M46.572,44.6h7.305V65.172c0,9.236-4.45,12.511-11.5,12.511A18.069,18.069,0,0,1,37,76.927l.84-5.962a12.309,12.309,0,0,0,3.778.588c3.107,0,5.038-1.427,5.038-6.381L46.572,44.6Z" transform="translate(-37 -44.096)" fill="#fff"/>
            <path id="Path_19" data-name="Path 19" d="M64.511,69.526a18.736,18.736,0,0,0,8.145,2.015c3.359,0,5.122-1.427,5.122-3.611,0-2.015-1.511-3.191-5.458-4.534-5.374-1.931-8.984-4.954-8.984-9.74,0-5.458,4.7-9.656,12.343-9.656a19,19,0,0,1,8.313,1.679l-1.679,5.878a15.8,15.8,0,0,0-6.717-1.511c-3.191,0-4.7,1.511-4.7,3.107,0,2.1,1.763,3.023,6.046,4.618,5.71,2.1,8.4,5.122,8.4,9.74,0,5.458-4.114,10.076-13.1,10.076A21.538,21.538,0,0,1,63,75.571Z" transform="translate(-41.169 -44)" fill="#fff"/>
          </g>
        </g>
      </g>
    </g>
  </g>
</svg>
