<svg xmlns="http://www.w3.org/2000/svg" width="35.079" height="33.529" viewBox="0 0 35.079 33.529">
  <path id="linkedin1" d="M46.445,66.184h7.518V88.807H46.445Zm3.809-10.906a3.919,3.919,0,1,0-.1,7.816H50.2a3.92,3.92,0,1,0,.05-7.816ZM72.421,65.652a7.464,7.464,0,0,0-6.776,3.734v-3.2h-7.52c.1,2.122,0,22.624,0,22.624h7.52V76.173a5.177,5.177,0,0,1,.247-1.836,4.118,4.118,0,0,1,3.857-2.75c2.723,0,3.81,2.076,3.81,5.116v12.1h7.519V75.834C81.079,68.885,77.371,65.652,72.421,65.652Z" transform="translate(-46 -55.278)"/>
</svg>
