<svg xmlns="http://www.w3.org/2000/svg" xmlns:xlink="http://www.w3.org/1999/xlink" width="249" height="219" viewBox="0 0 249 219">
  <defs>
    <filter id="Rectangle_64" x="0" y="0" width="249" height="219" filterUnits="userSpaceOnUse">
      <feOffset dx="-1" dy="5" input="SourceAlpha"/>
      <feGaussianBlur stdDeviation="4" result="blur"/>
      <feFlood flood-opacity="0.161"/>
      <feComposite operator="in" in2="blur"/>
      <feComposite in="SourceGraphic"/>
    </filter>
  </defs>
  <g id="mockupcard" transform="translate(-1155 -6090)">
    <g transform="matrix(1, 0, 0, 1, 1155, 6090)" filter="url(#Rectangle_64)">
      <rect id="Rectangle_64-2" data-name="Rectangle 64" width="225" height="195" rx="35" transform="translate(13 7)" fill="#fff" opacity="0.84"/>
    </g>
    <path id="iconfinder_sketch_3427259" d="M134.2,73.7l-7.57-7.57a2.23,2.23,0,0,0-3.154,0l-4.72,4.72L102.142,54.242a.789.789,0,0,0-.114-.093l-.037-.023a.83.83,0,0,0-.1-.05l-.039-.019a1.006,1.006,0,0,0-.134-.041h0a.67.67,0,0,0-.144-.014l-.017,0H55.984A6.489,6.489,0,0,0,49.5,60.483v70.523a6.489,6.489,0,0,0,6.483,6.483H113.2a6.491,6.491,0,0,0,6.485-6.483V91.37l9.149-9.149,5.365-5.365A2.231,2.231,0,0,0,134.2,73.7ZM102.384,56.823,116.86,71.3H105.213a2.834,2.834,0,0,1-2.829-2.831V56.823Zm15.646,74.183a4.836,4.836,0,0,1-4.831,4.83H55.984a4.834,4.834,0,0,1-4.83-4.83V60.483a4.834,4.834,0,0,1,4.83-4.83h44.747V68.468a4.488,4.488,0,0,0,4.482,4.484H116.66L87.743,101.87a2.078,2.078,0,0,0-.358.486c-.006.01-.014.019-.021.029a1.271,1.271,0,0,0-.091.184,1.516,1.516,0,0,0-.072.18l-2.66,7.983a.029.029,0,0,1,0,.013L83.419,114.1a2.21,2.21,0,0,0,.037,1.517c0,.006,0,.014.008.021a1.831,1.831,0,0,0,.093.194.417.417,0,0,0,.021.044,1.743,1.743,0,0,0,.105.165.565.565,0,0,0,.037.06s0,0,0,0c.037.054.081.1.122.151.014.019.029.037.045.056.043.048.089.089.134.13.021.019.037.037.056.054.045.039.1.074.143.11.023.017.043.035.066.052.045.029.091.054.138.081.029.017.058.037.087.052s.083.037.124.056l.116.052c.023.008.048.014.07.021a2.182,2.182,0,0,0,.7.12,2.254,2.254,0,0,0,.711-.116l11.347-3.784a1.522,1.522,0,0,0,.18-.073c.039-.014.076-.033.112-.049L97.9,113l.019-.013.014-.006c.017-.008.031-.021.048-.029s.035-.021.05-.031a2.152,2.152,0,0,0,.432-.329L118.03,93.023v37.983ZM86.267,110.781l2.162-6.485,7.607,7.607-6.483,2.164Zm1.531,3.869-2.083.694a.566.566,0,0,1-.653-.213c-.008-.013-.017-.025-.025-.039a.289.289,0,0,1-.021-.037s0,0,0-.006a.568.568,0,0,1-.052-.176.019.019,0,0,0,0-.011.383.383,0,0,0,0-.048v-.031c0-.006,0-.012,0-.021a.57.57,0,0,1,.031-.144l.694-2.083Zm31.885-25.617-1.653,1.653L97.592,111.122,89.21,102.74l28.82-28.82.667-.667.986.986,7.4,7.4Zm13.344-13.346-4.778,4.78-8.384-8.382,4.78-4.78a.587.587,0,0,1,.814,0l7.57,7.57A.574.574,0,0,1,133.027,75.686Z" transform="translate(1194.499 6094)"/>
  </g>
</svg>
