<svg xmlns="http://www.w3.org/2000/svg" xmlns:xlink="http://www.w3.org/1999/xlink" width="249" height="219" viewBox="0 0 249 219">
  <defs>
    <filter id="Rectangle_61" x="0" y="0" width="249" height="219" filterUnits="userSpaceOnUse">
      <feOffset dx="-1" dy="5" input="SourceAlpha"/>
      <feGaussianBlur stdDeviation="4" result="blur"/>
      <feFlood flood-opacity="0.161"/>
      <feComposite operator="in" in2="blur"/>
      <feComposite in="SourceGraphic"/>
    </filter>
  </defs>
  <g id="prototypingcard" transform="translate(-1174 -5810)">
    <g id="Group_31" data-name="Group 31">
      <g transform="matrix(1, 0, 0, 1, 1174, 5810)" filter="url(#Rectangle_61)">
        <rect id="Rectangle_61-2" data-name="Rectangle 61" width="225" height="195" rx="35" transform="translate(13 7)" fill="#fff" opacity="0.84"/>
      </g>
      <g id="_x35_92_x2C__Blueprint_x2C__design_x2C__drawing_x2C__plan_x2C__prototype" transform="translate(1228.999 5808.229)">
        <g id="Group_22" data-name="Group 22" transform="translate(26.001 69.771)">
          <path id="Path_20" data-name="Path 20" d="M114.958,74.113H31.06v60.769h83.9Zm-4.946,4.512H70.2v51.74h39.815Zm-40.5-1.389h41.2a.693.693,0,0,1,.689.695v53.129a.693.693,0,0,1-.689.695h-41.2a.694.694,0,0,1-.695-.695V77.93A.694.694,0,0,1,69.508,77.236Zm-35.139,0H65.358a.694.694,0,0,1,.694.695v7.837a.694.694,0,0,1-.694.695H34.369a.694.694,0,0,1-.694-.695V77.93A.694.694,0,0,1,34.369,77.236Zm30.294,1.389h-29.6v6.454h29.6V78.625Zm-30.294,10.6h6.8a.7.7,0,0,1,.695.694V99.952a.694.694,0,0,1-.695.695h-6.8a.694.694,0,0,1-.694-.695V89.924A.7.7,0,0,1,34.369,89.229Zm6.11,1.389H35.064v8.639h5.415Zm4.263,1.762a.695.695,0,1,1,0-1.389H62.27a.695.695,0,0,1,0,1.389Zm0,3.252a.695.695,0,1,1,0-1.389H62.27a.695.695,0,0,1,0,1.389Zm0,3.252a.695.695,0,1,1,0-1.389H62.27a.695.695,0,0,1,0,1.389ZM34.369,112.138h3.4a.694.694,0,0,1,.694.695v5.014a.7.7,0,0,1-.694.694h-3.4a.7.7,0,0,1-.694-.694v-5.015A.694.694,0,0,1,34.369,112.138Zm2.711,1.389H35.064v3.625H37.08Zm2.473,1.225a.692.692,0,0,1,0-1.384h8.764a.692.692,0,1,1,0,1.384Zm0,2.558a.694.694,0,0,1,0-1.389h8.764a.694.694,0,0,1,0,1.389Zm12.3-5.172h3.4a.693.693,0,0,1,.689.695v5.014a.7.7,0,0,1-.689.694h-3.4a.7.7,0,0,1-.695-.694v-5.015A.694.694,0,0,1,51.857,112.138Zm2.71,1.389H52.552v3.625h2.016Zm2.473,1.225a.692.692,0,0,1,0-1.384H65.8a.692.692,0,1,1,0,1.384Zm0,2.558a.694.694,0,0,1,0-1.389H65.8a.694.694,0,1,1,0,1.389Zm-22.671,5.082h3.4a.694.694,0,0,1,.694.695V128.1a.694.694,0,0,1-.694.694h-3.4a.694.694,0,0,1-.694-.694v-5.014A.694.694,0,0,1,34.369,122.392Zm2.711,1.389H35.064v3.625H37.08Zm2.473,1.231a.695.695,0,0,1,0-1.389h8.764a.695.695,0,0,1,0,1.389Zm0,2.552a.694.694,0,0,1,0-1.389h8.764a.694.694,0,0,1,0,1.389Zm12.3-5.172h3.4a.693.693,0,0,1,.689.695V128.1a.693.693,0,0,1-.689.694h-3.4a.694.694,0,0,1-.695-.694v-5.014A.694.694,0,0,1,51.857,122.392Zm2.71,1.389H52.552v3.625h2.016Zm2.473,1.231a.695.695,0,0,1,0-1.389H65.8a.695.695,0,1,1,0,1.389Zm0,2.552a.694.694,0,0,1,0-1.389H65.8a.694.694,0,1,1,0,1.389ZM90.8,85.864,98.013,81.7H90.8Zm0,5.7,16.364-9.452V81.7h-6.386L90.8,87.462Zm0,5.7,16.364-9.453V83.712L90.8,93.165Zm0,5.7,16.364-9.447V89.416L90.8,98.868Zm0,5.7,16.364-9.447V95.119L90.8,104.565Zm0,5.7,16.364-9.447v-4.105L90.8,110.268Zm0,5.7,16.364-9.447v-4.105L90.8,115.971Zm0,5.7,16.364-9.453v-4.1L90.8,121.675Zm16.364-2.151-6.341,3.665h6.341Zm-9.108,3.665,9.108-5.263v-4.105l-16.217,9.368h7.109ZM89.413,81.7H73.043v45.6H89.413ZM72.349,80.313H107.86a.694.694,0,0,1,.695.694v46.98a.7.7,0,0,1-.695.695H72.349a.7.7,0,0,1-.695-.695V81.008A.694.694,0,0,1,72.349,80.313Zm11.5,2.818a.695.695,0,0,1,1.389,0v1.135h1.135a.695.695,0,1,1,0,1.389H85.24V86.79a.695.695,0,0,1-1.389,0V85.655H82.716a.695.695,0,1,1,0-1.389h1.135ZM74.8,125.6a.692.692,0,1,1,0-1.384h3.659a.692.692,0,1,1,0,1.384ZM32.563,138.378a.695.695,0,0,1,0-1.389h56.1a.695.695,0,0,1,0,1.389ZM65.415,141.8a.694.694,0,1,1,0-1.389H104.23a.694.694,0,1,1,0,1.389Zm42.79,0a.694.694,0,1,1,0-1.389h4.85a.694.694,0,1,1,0,1.389Zm-77.85-.085a.694.694,0,0,1,0-1.389h18.4a.694.694,0,0,1,0,1.389Zm.012-68.991H109.9V69.771H26v60.775h3.67V73.419A.694.694,0,0,1,30.366,72.724Z" transform="translate(-26.001 -69.771)" fill-rule="evenodd"/>
        </g>
      </g>
    </g>
  </g>
</svg>
