<svg xmlns="http://www.w3.org/2000/svg" width="774" height="465" viewBox="0 0 774 465">
  <g id="skillpercentage" transform="translate(-729.25 -5873)">
    <g id="Rectangle_23" data-name="Rectangle 23" transform="translate(729.25 5873)" fill="#fff" stroke="#707070" stroke-width="1">
      <rect width="774" height="17" rx="8.5" stroke="none"/>
      <rect x="0.5" y="0.5" width="773" height="16" rx="8" fill="none"/>
    </g>
    <g id="Rectangle_28" data-name="Rectangle 28" transform="translate(729.25 6041)" fill="#fff" stroke="#707070" stroke-width="1">
      <rect width="774" height="17" rx="8.5" stroke="none"/>
      <rect x="0.5" y="0.5" width="773" height="16" rx="8" fill="none"/>
    </g>
    <g id="Rectangle_31" data-name="Rectangle 31" transform="translate(729.25 6209)" fill="#fff" stroke="#707070" stroke-width="1">
      <rect width="774" height="17" rx="8.5" stroke="none"/>
      <rect x="0.5" y="0.5" width="773" height="16" rx="8" fill="none"/>
    </g>
    <g id="Rectangle_24" data-name="Rectangle 24" transform="translate(729.25 5929)" fill="#fff" stroke="#707070" stroke-width="1">
      <rect width="774" height="17" rx="8.5" stroke="none"/>
      <rect x="0.5" y="0.5" width="773" height="16" rx="8" fill="none"/>
    </g>
    <g id="Rectangle_26" data-name="Rectangle 26" transform="translate(729.25 6097)" fill="#fff" stroke="#707070" stroke-width="1">
      <rect width="774" height="17" rx="8.5" stroke="none"/>
      <rect x="0.5" y="0.5" width="773" height="16" rx="8" fill="none"/>
    </g>
    <g id="Rectangle_29" data-name="Rectangle 29" transform="translate(729.25 6265)" fill="#fff" stroke="#707070" stroke-width="1">
      <rect width="774" height="17" rx="8.5" stroke="none"/>
      <rect x="0.5" y="0.5" width="773" height="16" rx="8" fill="none"/>
    </g>
    <g id="Rectangle_25" data-name="Rectangle 25" transform="translate(729.25 5985)" fill="#fff" stroke="#707070" stroke-width="1">
      <rect width="774" height="17" rx="8.5" stroke="none"/>
      <rect x="0.5" y="0.5" width="773" height="16" rx="8" fill="none"/>
    </g>
    <g id="Rectangle_27" data-name="Rectangle 27" transform="translate(729.25 6153)" fill="#fff" stroke="#707070" stroke-width="1">
      <rect width="774" height="17" rx="8.5" stroke="none"/>
      <rect x="0.5" y="0.5" width="773" height="16" rx="8" fill="none"/>
    </g>
    <g id="Rectangle_30" data-name="Rectangle 30" transform="translate(729.25 6321)" fill="#fff" stroke="#707070" stroke-width="1">
      <rect width="774" height="17" rx="8.5" stroke="none"/>
      <rect x="0.5" y="0.5" width="773" height="16" rx="8" fill="none"/>
    </g>
    <rect id="Rectangle_32" data-name="Rectangle 32" width="567" height="17" rx="8.5" transform="translate(729.25 5873)" fill="#ff9494"/>
    <rect id="Rectangle_33" data-name="Rectangle 33" width="567" height="17" rx="8.5" transform="translate(729.25 5929)" fill="#ff9494"/>
    <rect id="Rectangle_34" data-name="Rectangle 34" width="333" height="17" rx="8.5" transform="translate(729.25 5985)" fill="#ff9494"/>
    <rect id="Rectangle_35" data-name="Rectangle 35" width="664" height="17" rx="8.5" transform="translate(729.25 6041)" fill="#ff9494"/>
    <rect id="Rectangle_36" data-name="Rectangle 36" width="664" height="17" rx="8.5" transform="translate(729.25 6097)" fill="#ff9494"/>
    <rect id="Rectangle_37" data-name="Rectangle 37" width="664" height="17" rx="8.5" transform="translate(730.25 6153)" fill="#ff9494"/>
    <rect id="Rectangle_38" data-name="Rectangle 38" width="714" height="17" rx="8.5" transform="translate(730.25 6209)" fill="#ff9494"/>
    <rect id="Rectangle_39" data-name="Rectangle 39" width="498" height="17" rx="8.5" transform="translate(729.25 6265)" fill="#ff9494"/>
    <rect id="Rectangle_40" data-name="Rectangle 40" width="496" height="17" rx="8.5" transform="translate(731 6321)" fill="#ff9494"/>
  </g>
</svg>
