<svg xmlns="http://www.w3.org/2000/svg" xmlns:xlink="http://www.w3.org/1999/xlink" width="249" height="219" viewBox="0 0 249 219">
  <defs>
    <filter id="Rectangle_62" x="0" y="0" width="249" height="219" filterUnits="userSpaceOnUse">
      <feOffset dx="-1" dy="5" input="SourceAlpha"/>
      <feGaussianBlur stdDeviation="4" result="blur"/>
      <feFlood flood-opacity="0.161"/>
      <feComposite operator="in" in2="blur"/>
      <feComposite in="SourceGraphic"/>
    </filter>
  </defs>
  <g id="wireframingcard" transform="translate(-1428 -5810)">
    <g transform="matrix(1, 0, 0, 1, 1428, 5810)" filter="url(#Rectangle_62)">
      <rect id="Rectangle_62-2" data-name="Rectangle 62" width="225" height="195" rx="35" transform="translate(13 7)" fill="#fff" opacity="0.84"/>
    </g>
    <g id="iconfinder_Technology_Mix_-_Final-08_998684" transform="translate(1496.3 5856)">
      <path id="Path_21" data-name="Path 21" d="M23.142,27.383A2.342,2.342,0,1,0,20.8,25.042,2.339,2.339,0,0,0,23.142,27.383Zm0-3.687A1.345,1.345,0,1,1,21.8,25.042,1.34,1.34,0,0,1,23.142,23.7Z" transform="translate(-3.061 -2.358)"/>
      <path id="Path_22" data-name="Path 22" d="M34.442,27.383A2.342,2.342,0,1,0,32.1,25.042,2.339,2.339,0,0,0,34.442,27.383Zm0-3.687A1.345,1.345,0,1,1,33.1,25.042,1.34,1.34,0,0,1,34.442,23.7Z" transform="translate(-8.731 -2.358)"/>
      <path id="Path_23" data-name="Path 23" d="M45.742,27.383A2.342,2.342,0,1,0,43.4,25.042,2.339,2.339,0,0,0,45.742,27.383Zm0-3.687A1.345,1.345,0,1,1,44.4,25.042,1.34,1.34,0,0,1,45.742,23.7Z" transform="translate(-14.402 -2.358)"/>
      <path id="Path_24" data-name="Path 24" d="M48.031,154H29.6a.5.5,0,1,0,0,1H48.031a.5.5,0,1,0,0-1Z" transform="translate(-7.226 -68.245)"/>
      <path id="Path_25" data-name="Path 25" d="M48.031,159H29.6a.5.5,0,1,0,0,1H48.031a.5.5,0,1,0,0-1Z" transform="translate(-7.226 -70.754)"/>
      <path id="Path_26" data-name="Path 26" d="M48.031,164H29.6a.5.5,0,1,0,0,1H48.031a.5.5,0,1,0,0-1Z" transform="translate(-7.226 -73.263)"/>
      <path id="Path_27" data-name="Path 27" d="M48.031,169H29.6a.5.5,0,0,0,0,1H48.031a.5.5,0,1,0,0-1Z" transform="translate(-7.226 -75.772)"/>
      <path id="Path_28" data-name="Path 28" d="M100.031,154H81.6a.5.5,0,1,0,0,1h18.433a.5.5,0,1,0,0-1Z" transform="translate(-33.32 -68.245)"/>
      <path id="Path_29" data-name="Path 29" d="M100.031,159H81.6a.5.5,0,1,0,0,1h18.433a.5.5,0,1,0,0-1Z" transform="translate(-33.32 -70.754)"/>
      <path id="Path_30" data-name="Path 30" d="M100.031,164H81.6a.5.5,0,1,0,0,1h18.433a.5.5,0,1,0,0-1Z" transform="translate(-33.32 -73.263)"/>
      <path id="Path_31" data-name="Path 31" d="M100.031,169H81.6a.5.5,0,0,0,0,1h18.433a.5.5,0,0,0,0-1Z" transform="translate(-33.32 -75.772)"/>
      <path id="Path_32" data-name="Path 32" d="M151.031,154H132.6a.5.5,0,1,0,0,1h18.433a.5.5,0,1,0,0-1Z" transform="translate(-58.912 -68.245)"/>
      <path id="Path_33" data-name="Path 33" d="M151.031,159H132.6a.5.5,0,1,0,0,1h18.433a.5.5,0,1,0,0-1Z" transform="translate(-58.912 -70.754)"/>
      <path id="Path_34" data-name="Path 34" d="M151.031,164H132.6a.5.5,0,1,0,0,1h18.433a.5.5,0,1,0,0-1Z" transform="translate(-58.912 -73.263)"/>
      <path id="Path_35" data-name="Path 35" d="M151.031,169H132.6a.5.5,0,0,0,0,1h18.433a.5.5,0,0,0,0-1Z" transform="translate(-58.912 -75.772)"/>
      <path id="Path_36" data-name="Path 36" d="M99.543,47.692V18H14.849V47.543c0,.1-.149.2-.149.349s.149.3.149.349V99.7H99.543V48.091c0-.05.05-.149.05-.2S99.543,47.742,99.543,47.692Zm-1,51.015h-82.7V48.39H47.431a9.895,9.895,0,0,0,19.729,0H98.546ZM57.3,49.087a6.236,6.236,0,0,1,6.078,5.032,8.92,8.92,0,0,1-12.156,0A6.236,6.236,0,0,1,57.3,49.087ZM54.9,45.451a2.391,2.391,0,1,1,4.783,0,2.391,2.391,0,1,1-4.783,0Zm4.185,2.89a3.457,3.457,0,0,0,1.594-2.89A3.388,3.388,0,1,0,55.5,48.34a7.152,7.152,0,0,0-5.082,4.932,8.809,8.809,0,0,1-2.043-5.679,8.918,8.918,0,0,1,17.835,0,8.809,8.809,0,0,1-2.043,5.679A7.064,7.064,0,0,0,59.089,48.34Zm39.457-.947H67.21a9.915,9.915,0,0,0-19.828,0H15.846V27.466h82.7Zm0-20.924h-82.7V19h82.7Z"/>
      <path id="Path_37" data-name="Path 37" d="M28,125.928H47.928V106H28ZM29,107H46.931v17.935H29Z" transform="translate(-6.674 -44.159)"/>
      <path id="Path_38" data-name="Path 38" d="M80,125.928H99.928V106H80ZM81,107H98.931v17.935H81Z" transform="translate(-32.768 -44.159)"/>
      <path id="Path_39" data-name="Path 39" d="M150.928,106H131v19.928h19.928Zm-1,18.931H132V107h17.935Z" transform="translate(-58.36 -44.159)"/>
    </g>
  </g>
</svg>
