<svg xmlns="http://www.w3.org/2000/svg" width="52.859" height="33.123" viewBox="0 0 52.859 33.123">
  <g id="behance1" transform="translate(0.003 -95.585)">
    <path id="Path_8" data-name="Path 8" d="M14.8,122.561a9.172,9.172,0,0,0,2.006-.2,4.746,4.746,0,0,0,1.688-.689,3.46,3.46,0,0,0,1.164-1.3,4.507,4.507,0,0,0,.428-2.108,4.246,4.246,0,0,0-1.41-3.588,6.039,6.039,0,0,0-3.733-1.067H7.155v8.953Zm-.4-13.84a5.184,5.184,0,0,0,3.15-.911,3.418,3.418,0,0,0,1.221-2.958,3.866,3.866,0,0,0-.4-1.867,2.979,2.979,0,0,0-1.1-1.131,4.48,4.48,0,0,0-1.575-.571,9.637,9.637,0,0,0-1.842-.16h-6.7v7.6Zm.926-13.136A19.921,19.921,0,0,1,19.567,96a9.239,9.239,0,0,1,3.284,1.341,6.3,6.3,0,0,1,2.123,2.48,8.759,8.759,0,0,1,.743,3.815,7.122,7.122,0,0,1-1.115,4.1,8.1,8.1,0,0,1-3.316,2.681,7.767,7.767,0,0,1,4.464,3.028,10.024,10.024,0,0,1,.524,9.481,8.293,8.293,0,0,1-2.572,2.944,11.323,11.323,0,0,1-3.7,1.687,16.57,16.57,0,0,1-4.251.547H0V95.585H15.326Z" transform="translate(0 0)" fill="#030404"/>
    <path id="Path_9" data-name="Path 9" d="M299.68,182.234a4.84,4.84,0,0,0-3.657-1.31,5.567,5.567,0,0,0-2.574.528,5.177,5.177,0,0,0-1.638,1.3,4.642,4.642,0,0,0-.867,1.659,7.363,7.363,0,0,0-.294,1.551h10.52A6.294,6.294,0,0,0,299.68,182.234Zm-7.431,12.37a6.59,6.59,0,0,0,7.559.434,4.158,4.158,0,0,0,1.728-2.087h5.7a10.807,10.807,0,0,1-4.2,6.076,12.223,12.223,0,0,1-6.816,1.832,13.578,13.578,0,0,1-5.022-.891,10.685,10.685,0,0,1-3.8-2.532A11.585,11.585,0,0,1,285,193.513a14.388,14.388,0,0,1-.844-5.018,13.808,13.808,0,0,1,.869-4.924,11.531,11.531,0,0,1,2.466-3.945A11.7,11.7,0,0,1,291.306,177a12.255,12.255,0,0,1,4.911-.957,11.15,11.15,0,0,1,5.231,1.164,10.445,10.445,0,0,1,3.671,3.12,12.788,12.788,0,0,1,2.069,4.468,16.7,16.7,0,0,1,.45,5.241H290.65A6.6,6.6,0,0,0,292.249,194.6Z" transform="translate(-254.823 -72.151)" fill="#030404"/>
    <rect id="Rectangle_22" data-name="Rectangle 22" width="13.18" height="3.208" transform="translate(34.504 97.767)" fill="#030404"/>
  </g>
</svg>
