<svg xmlns="http://www.w3.org/2000/svg" width="896.5" height="762" viewBox="0 0 896.5 762">
  <g id="footerdesign" transform="translate(-1138 -7429)">
    <rect id="Rectangle_49" data-name="Rectangle 49" width="177" height="176" rx="41" transform="translate(1680 7429)" fill="#a468ff"/>
    <ellipse id="Ellipse_7" data-name="Ellipse 7" cx="79.5" cy="80" rx="79.5" ry="80" transform="translate(1689 7639)" fill="#ff6161"/>
    <ellipse id="Ellipse_8" data-name="Ellipse 8" cx="79.5" cy="80" rx="79.5" ry="80" transform="translate(1513 7827)" fill="#61ff9b"/>
    <ellipse id="Ellipse_11" data-name="Ellipse 11" cx="79.5" cy="80" rx="79.5" ry="80" transform="translate(1324 8029)" fill="#fa61ff"/>
    <ellipse id="Ellipse_10" data-name="Ellipse 10" cx="79.5" cy="80" rx="79.5" ry="80" transform="translate(1866 7827)" fill="#ff61fa"/>
    <ellipse id="Ellipse_9" data-name="Ellipse 9" cx="79.5" cy="80" rx="79.5" ry="80" transform="translate(1690 8029)" fill="#61bbff"/>
    <rect id="Rectangle_48" data-name="Rectangle 48" width="177" height="176" rx="41" transform="translate(1503 7631)" fill="#fff"/>
    <rect id="Rectangle_54" data-name="Rectangle 54" width="177" height="176" rx="41" transform="translate(1138 8015)" fill="#fff"/>
    <rect id="Rectangle_50" data-name="Rectangle 50" width="177" height="176" rx="41" transform="translate(1857.5 7631)" fill="#fff"/>
    <rect id="Rectangle_51" data-name="Rectangle 51" width="177" height="176" rx="41" transform="translate(1314.5 7819)" fill="#474747"/>
    <rect id="Rectangle_53" data-name="Rectangle 53" width="177" height="176" rx="41" transform="translate(1503.5 8015)" fill="#fff"/>
    <rect id="Rectangle_52" data-name="Rectangle 52" width="177" height="176" rx="41" transform="translate(1680.5 7819)" fill="#dfad6b"/>
    <path id="Path_10" data-name="Path 10" d="M41,0h95a41,41,0,0,1,41,41v94a41,41,0,0,1-41,41H41A41,41,0,0,1,0,135V41A41,41,0,0,1,41,0Z" transform="translate(1857.5 8015)" fill="#4d4d4d"/>
  </g>
</svg>
