<svg xmlns="http://www.w3.org/2000/svg" width="881" height="879" viewBox="0 0 881 879">
  <g id="Group_17" data-name="Group 17" transform="translate(-790 -166)">
    <rect id="Rectangle_15" data-name="Rectangle 15" width="177" height="176" rx="41" transform="translate(1140 517)" fill="#a468ff"/>
    <g id="homedesign">
      <rect id="Rectangle_8" data-name="Rectangle 8" width="177" height="176" rx="41" transform="translate(1140 166)" fill="#a468ff"/>
      <rect id="Rectangle_18" data-name="Rectangle 18" width="177" height="176" rx="41" transform="translate(1317 347)" fill="#484848"/>
      <rect id="Rectangle_20" data-name="Rectangle 20" width="177" height="176" rx="41" transform="translate(1494 517)" fill="#66eee5"/>
      <rect id="Rectangle_21" data-name="Rectangle 21" width="177" height="176" rx="41" transform="translate(790 517)" fill="#68fff5"/>
      <rect id="Rectangle_19" data-name="Rectangle 19" width="177" height="176" rx="41" transform="translate(1317 693)" fill="#ff68ae"/>
      <rect id="Rectangle_17" data-name="Rectangle 17" width="177" height="176" rx="41" transform="translate(1140 869)" fill="#a468ff"/>
      <rect id="Rectangle_14" data-name="Rectangle 14" width="177" height="176" rx="41" transform="translate(967 342)" fill="#fff"/>
      <rect id="Rectangle_16" data-name="Rectangle 16" width="177" height="176" rx="41" transform="translate(967 693)" fill="#fff"/>
      <ellipse id="Ellipse_1" data-name="Ellipse 1" cx="79.5" cy="80" rx="79.5" ry="80" transform="translate(1149 350)" fill="#7e87ff"/>
      <ellipse id="Ellipse_2" data-name="Ellipse 2" cx="79.5" cy="80" rx="79.5" ry="80" transform="translate(1326 525)" fill="#ff6161"/>
      <ellipse id="Ellipse_3" data-name="Ellipse 3" cx="79.5" cy="80" rx="79.5" ry="80" transform="translate(1149 701)" fill="#fbf167"/>
      <ellipse id="Ellipse_4" data-name="Ellipse 4" cx="79.5" cy="80" rx="79.5" ry="80" transform="translate(976 525)" fill="#a7ffbe"/>
    </g>
  </g>
</svg>
